<?xml version="1.0" encoding="utf-8"?>
<!-- Generator: Adobe Illustrator 24.3.0, SVG Export Plug-In . SVG Version: 6.00 Build 0)  -->
<svg version="1.1" xmlns="http://www.w3.org/2000/svg" xmlns:xlink="http://www.w3.org/1999/xlink" x="0px" y="0px"
	 viewBox="0 0 1024 1024" style="enable-background:new 0 0 1024 1024;" xml:space="preserve">
<style type="text/css">
	.st0{fill:#393E3B;stroke:#C3B7A3;stroke-width:10;stroke-miterlimit:10;}
	.st1{fill:#F2E8D4;}
	.st2{fill:#525854;}
	.st3{opacity:0.2;fill:#383024;}
	.st4{fill:#393E3B;}
</style>
<g id="Layer_3">
	<path class="st0" d="M860.1,531.7c0-153.7-99.6-284.1-237.8-330.1c-0.6-1.3-1.3-2.6-2-3.9c-1.4-2.6-2.7-5.2-4.2-7.7
		c-1.5-2.6-3.2-5.1-4.9-7.6c-1-1.5-2.2-2.9-3.3-4.3c-1.3-1.6-7.7-8.8-7.7-8.8s0.3,10,0.3,13.7c0,1.3,0,2.7,0.1,4c0,1.3,0.1,4,0.1,4
		s-8.8-11.2-13.3-16.3c-8.4-9.6-17.2-18.9-27.1-26.9c-11.7-9.4-24.7-17.1-38.4-23.1c-11.2-4.8-22.9-8.6-34.9-10.9
		c-8.5-1.6-17.4-2.9-26-2c-1.7,0.2-3.5,0.4-5.2,0.7c-7.1,1.3-8.9,9.3-4.2,14.7c1.1,1.3,2.8,3.1,3.9,4.3
		c13.7,14.9,23.5,33.4,26.1,53.5c-177.8,15.5-317.3,164.8-317.3,346.6c0,130.3,71.6,243.9,177.7,303.5l0,0h0
		c1.2,0.7,2.3,1.3,3.5,1.9c0,0,0,0,0,0c0,0,0,0,0,0C388,860.4,436,875,486.9,878.7c0.1,0,0.2,0,0.3,0c2.7,0.2,5.3,0.3,8,0.5
		c0.2,0,0.4,0,0.5,0c2.6,0.1,5.3,0.2,7.9,0.3c0.2,0,0.3,0,0.5,0c2.7,0.1,5.4,0.1,8,0.1h0l0,0h0c1.5,0,3,0,4.6,0c0,0,0,0,0,0
		C706.9,877.1,860.1,722.3,860.1,531.7z"/>
</g>
<g id="Layer_4">
	<g>
		<circle class="st1" cx="512.2" cy="531.7" r="347.9"/>
		<g>
			<path class="st2" d="M603.6,238.3c-4.8-11.5-11.1-22.8-18.6-33.4c-3.6-5.2-7.6-10.2-11.8-15.1c-6.3-7.4-13.2-14.3-20.6-20.7
				c-8.6-7.5-18.1-14.4-28.3-20.7c-11-6.8-21.4-11.2-31.6-13.4l-0.2-0.1c-0.7-0.2-1.6-0.4-2.4-0.2c-0.4,0.1-0.7,0.3-0.8,0.6
				c-0.2,0.5,0.2,0.9,0.4,1.2c0.1,0.1,0.1,0.1,0.2,0.2c0.6,0.8,1.1,1.8,1.6,2.6l0.1,0.1c1,1.8,2,3.6,2.9,5.5
				c4.5,9.5,7.6,20.6,9.2,33c3.3,26.2-2.2,54.6-16.1,82l-0.4,0.8l0.9,0c16.9-1,32,0.8,46.2,5.5c15.8,5.2,30.9,13.3,44.9,24.2
				c3,2.3,6,4.8,9,7.5c5.6,4.9,10.3,9.7,14.4,14.4c2.3,2.7,5,5.8,6.9,9.3c2.4,4.4,3.2,14.1,2.6,21.5l1-3.9
				C620.1,305.8,616.8,269.9,603.6,238.3z"/>
			<path class="st2" d="M361.7,427.3c8.4-1.1,17.6-1.1,27.2-0.1c13.4,1.4,26.7,4.6,39.3,9.4c14.8,5.7,28.6,13.4,41,23.1
				c5.2,4.1,12.7,10.3,18.2,17.5c6.1,7.9,11.6,15.3,17.1,22.7l0.1,0.2c0.2,0.3,0.5,0.7,0.7,1l0.4,0.5l0.4-0.5
				c10.7-14.2,22.8-27.5,34.6-40.4c7.4-8.1,15-16.4,22.2-24.9c3.6-4.3,7.1-8.7,10.5-13.2l0.1-0.2l-0.1-0.2
				c-2.4-8.7-9.1-16-14.4-21.8c-10.3-11.2-22.4-24-36.5-34.4c-15.1-11-30.3-19-45.3-23.6c-8.9-2.7-18.2-4.1-26.9-5.1
				c-7.1-0.8-14.1-1.3-20.7-1.3h-0.2l-2.1,2.1c-4.1,4.1-8.2,8.3-12.3,12.4c-21.1,21.2-43,43.2-61.9,67.1c-3,3.8-6.1,7.8-9.1,12.1
				l-0.8,1l1.3-0.3C350.2,429.2,355.9,428,361.7,427.3z"/>
			<path class="st2" d="M457.7,636.2c3.4,0.6,7.8,0.9,13.2,0.9l0.6,0l-0.1-0.6c-2-12.3-1.7-25.3-1.2-37.5c0.1-1.4,0.1-2.9,0.2-4.3
				c0.6-11.1,2.3-22.1,5.1-32.6l0.1-0.3l-0.2-0.2c-1.6-1.7-3.5-3.2-5-4.2c-6.9-5-15.3-8.2-22.7-11.1c-7.8-3.1-16-5.7-24.1-7.8
				c-2.3-0.6-4.3-1.1-6.1-1.5c-17-3.4-35-4.3-55-2.9c-17,1.2-34.3,5.8-50,13.5c-7.4,3.6-14.4,7.9-20.9,12.7l-0.2,0.1l0,0.2
				c-0.6,10-0.4,20,0.6,29.7c2,19.5,5.9,38.1,11.6,55.4c5.7,17.2,12.8,33.9,21.2,49.7c0.5,0.9,1,1.9,1.5,2.8
				c0.7,1.3,1.5,2.7,2.4,4.1l0.4,0.6l0.4-0.6c2.9-4,6.1-7.8,9.2-11.5l0.9-1.1c2.3-2.7,4.1-4.9,5.8-6.8c5.9-6.8,11.6-12.5,17.2-17.4
				c13.3-11.6,28-20,43.7-25.1C423.8,635.1,441.5,633.5,457.7,636.2z"/>
			<path class="st2" d="M588.3,804.1c-2.9-16.5-11.8-33.4-27.4-51.8c-7.1-8.4-14.8-16.2-22.1-23.7l-3.5-3.6
				c-4.1-4.2-8.3-8.4-12.4-12.4c-7.3-7.3-14.9-14.9-22-22.6l-0.1-0.2l-0.2,0c-5-0.1-9.7,1.1-13.6,3.5c-6.8,4.2-12,10.5-17,16.7
				c-1.1,1.4-2.2,2.7-3.3,4c-20.3,24.2-33.5,49-39,73.9l-0.1,0.4l0.4,0.2c2,1,3.6,1.7,5.2,2.4c14.3,6.4,30.9,11.4,50.9,15.4
				c19.2,3.9,39,6.4,58.1,8.8c12.1,1.5,24.6,3.1,36.8,5.1c0.3,0.1,0.9,0.2,1.6,0.4c2,0.5,3.8,0.9,5.1,0.9c0.8,0,1.5-0.2,1.9-0.6
				c3.3-3.1,1.8-11.5,1-15.9L588.3,804.1z"/>
		</g>
		<path class="st3" d="M287.5,590.5c1.9,18.8,5.6,37.3,11.5,55.3c5.6,17,12.7,33.8,21.2,49.6c0.5,0.9,1,1.9,1.5,2.8
			c2.5,4.4,5.2,8.6,8,12.7l7.4,9.7c8.8,10.8,18.8,20.5,29.3,29.6c5.8,5,11.6,9.7,17.9,14.3c13.8,9.9,28.3,19.1,43.9,26
			c16.2,7.2,33.5,11.9,50.8,15.4c19.3,3.9,38.9,6.4,58.4,8.9c-0.2-1.6-0.7-3.2-1.7-4.5c-1.6-2.1-3.8-3.5-5.8-5.1
			c-4.6-3.8-9.6-7.2-14.4-10.7c-2.4-1.8-4.9-3.6-7.3-5.3c-7.1-5.1-14.6-9.8-22.2-14c-1.9-1-3.7-2.1-5.6-3.1
			c-0.9-0.5-1.7-0.9-2.6-1.3c-0.7-0.3-1.6-0.5-2.1-1.1c5.2,6.9,10.8,13.3,16.8,19.4c1.2,1.2,2.5,2.6,3.4,4.1c0.1,0.2,0.4,1,0.6,1.1
			c-0.6-0.4-1.2-0.7-1.8-1c-5.7-3.1-11.6-5.7-17.5-8.3c-5.6-2.6-11.3-5.2-16.8-8c-5.2-2.6-10.2-6-15-9.3c-7.2-4.9-14.6-10-21.3-15.7
			c-4.5-3.8-8.9-7.8-13.1-11.8c-2.1-2-4.2-4.1-6.3-6.2c-1-1.1-2.1-2.1-3.1-3.2c-0.9-1-1.9-2.3-3-3.1c0.1,0.7,0.3,1.5,0.5,2.2
			c2.2,8.5,6.4,16.6,11.4,23.8c-0.6-0.4-1.2-0.8-1.7-1.1c-7.2-5-14.2-10.2-20.9-15.9c-9.1-7.7-17.8-15.9-25.2-25.3
			c-3.6-4.6-7-9.4-10.1-14.3c-1.5-2.4-3.5-5-4.5-7.6c-0.4-0.9-0.2-2.2-0.1-3.2c0.1-1.8,0.1-3.7,0.2-5.5c0.1-3.5,0.1-7.1-0.3-10.6
			c-0.4-4.6-1.2-9.1-2.3-13.6c-0.3-1.3-0.7-2.6-1.1-3.9c-0.1-0.2-0.5-1.1-0.4-1.4c-2.5,6.9-5.3,13.6-9.5,19.7
			c-1.7-3.5-2.4-7.2-3.2-11c-0.9-3.8-1.7-7.6-2.5-11.4c-2.2-10.4-3.8-20.8-4.1-31.5c-0.2-8,0-16.1,0.3-24.1
			c0.2-4.8,0.3-9.5,0.6-14.3c0,0,0,0.1-0.1,0.1c-4.9,7.1-9.7,14.1-12.8,22.1c-1,2.5-1.8,5-2.4,7.5c-0.3,0.9-0.9,2.3-0.8,3.3
			c-0.5-9-0.7-18.2-0.7-27.2c0.1-12.4,1.6-24.8,3.3-37.1c0.8-5.8,1.7-11.6,3.2-17.3c1.5-5.7,3.3-11.3,5.3-16.7
			c1.9-5.4,4-10.8,6-16.2c-3.6,2.6-6.9,5.6-10,8.8c-8.5,8.7-15.9,18.3-23.3,27.9c-1.3,1.6-2.5,3.3-3.8,4.9
			C286.4,556.1,285.7,573.4,287.5,590.5z"/>
		<path class="st3" d="M494.9,704.6c5.5,2.5,11.3,4.3,17.1,5.9c5.9,1.6,11.8,3.2,17.8,4c0.4,0.1,0.7,0.1,1.1,0.1
			c0.2,0,0.8,0.1,1.6,0.2c-9.2-9.2-18.5-18.4-27.2-28.1c-10-11.3-19.4-23.9-23.8-38.6c-4.8-15.8-4.5-32.7-3.8-49.2
			c0.1-1.4,0.1-2.9,0.2-4.3c1.9-33.5,12.9-62.6,32.6-89.7c18-24.9,40.2-46.3,60-69.7c16.6-19.6,29.5-40,39.8-63.7
			c18.3-42.1,18.6-90.6,0.9-133.1c-4.9-11.7-11.2-22.9-18.5-33.3c-3.7-5.2-7.6-10.2-11.8-15c-6.3-7.4-13.2-14.3-20.5-20.6
			c-5.2-4.5-10.7-8.8-16.4-12.8c0.3,1,0.7,2,1.2,3c2.6,4.3,5.6,8.3,8.3,12.5c6.2,9.7,11.7,19.9,16.4,30.5c3.1,7,5.8,14.2,7.8,21.6
			c1.4,5.1,2.8,10.5,3.3,15.8c0.1,0.7,0.1,1.4,0.1,2.2c3.2-5.7,4.6-11,5.5-26.1c3.2,6.2,6.2,12.3,9.2,22.6
			c4.9,16.4,8.7,35.9,4.5,52.8c-4.2,17-11.5,33.7-18.6,49.7c-0.2,0.5-0.6,2.1-1.1,2.4c8.2-3.3,16.7-10.9,16.7-10.9s-2.6,5.3-3.3,6.3
			c-4.9,7.6-9.2,15.6-14.2,23.2c-2.5,3.8-5.1,7.6-7.7,11.4c-1.3,1.9-2.7,3.8-4,5.7c-1.3,1.8-2.6,3.3-4,4.9c-2,2.3-4.2,4.5-6.4,6.7
			c-5.2,5-11.1,9.1-17.6,12.2c-1.9,0.9-8.5,5.1-10,6.3c-0.9,0.7-2.7,2.3-2.7,2.3s12.1,2.2,19.3-2.4c-0.8,2.4-2.9,4.5-4.6,6.3
			c-2.8,3.1-5.7,5.9-8.7,8.7c-6.8,6.3-13.8,12.4-20.9,18.3c-8,6.6-16,13.2-23.9,19.9c-4.1,3.4-8.3,6.9-12.2,10.6
			c-3.7,3.5-6.8,7.6-10.1,11.5c-1.8,2.1-3.6,4.1-5.4,6.1c-1.7,1.9-5.5,5.8-5.5,5.8s5.5-2,8-3c2.6-1,5.1-2.2,7.6-3.4
			c4.5-2.2,13.4-8.2,13.4-8.2s-2.7,4.2-6,8.5c-7.2,9.4-14.3,19.1-20.5,29.3c-2.9,4.8-5.7,9.7-7.9,14.9c-2.3,5.4-3.8,11-5.2,16.8
			c-2.9,11.7-4.9,23.7-4.4,35.8c0.2,3.8,0.5,7.6,1,11.3c1.2,9.5,3,18.9,5.3,28.2c2.8,11.5,6.4,22.5,12.9,32.5
			c6.3,9.8,13.2,19.4,22.4,26.8c0.6,0.5,1.2,0.9,1.7,1.4c-0.6,0.1-1.3,0.1-1.9-0.1c-4.5-0.9-8.8-2.6-13.2-4.1
			c-0.5-0.2-0.9-0.3-1.4-0.5c-0.4-0.1-0.7-0.2-1.1-0.3c1.9,2,3.9,4,5.9,5.9c3.2,3,6.5,5.9,10.1,8.4c3.4,2.5,7.1,4.7,10.9,6.5
			C493.5,704,494.2,704.3,494.9,704.6z"/>
		<g>
			<path class="st4" d="M680.6,836.3c-9.8-5-37.3-7.5-37.3-7.5c0.1-2.4,0.5-4.4,0.8-6.7c0.3-2.9,0.8-10.1,0.2-11.5
				c-1.9,0-6.4,3.3-7.7,4.3c-1.6,1.2-3,2.5-4.4,3.8c-2.6,2.4-4.2,3.8-7.3,5.5c0.5-0.2-1.3-7.4-1.5-8.2c-0.6-2.8-1.2-5.5-2-8.2
				c-1.5-5.3-3.2-10.5-5.3-15.7c-4.1-10.1-8.9-19.8-14.8-29c-12.5-19.6-28.8-35.9-45.4-52c-6.7-6.4-13.2-13-19.8-19.5
				c-5.5-5.5-10.7-10.7-15.6-16.8c-13.7-17-20.9-36.6-17.5-58.4c0.4-2.3,0.7-4.6,1-6.9c0.6-4.1,1.9-8.5,0.7-12.6
				c-0.9,0.8-1.8,1.6-2.7,2.4c-1.6,1.4-3,2.9-4.4,4.5c-1.2,1.4-2.4,2.7-3.5,4.1c-0.6,0.7-1.2,1.4-1.8,2.1c-0.6,0.7-1.3,1.4-1.7,2.2
				c0.1-0.1-0.2-0.8-0.2-1c-0.1-0.4-0.1-0.8-0.1-1.2c0-0.7,0-1.4,0-2.1c0-5.9,1.6-11.7,3.9-17.1c3.4-8,6.8-16,11.5-23.3
				c4.5-7,9.8-13.6,15.3-19.9c4.1-4.7,8.3-9.2,12.7-13.7c1.6-1.6,3.3-3.2,5-4.7c1.6-1.5,3.3-2.9,4.8-4.3c1.5-1.4,3-2.8,4.1-4.6
				c0.2-0.4,0.5-0.8,0.6-1.2c0,0-10.9,2.3-15.3,3.6c-2.2,0.6-4.5,1.3-6.7,2c-0.6,0.2-5.7,1.5-5.7,2c0.2-2.6,3.2-5.2,4.9-6.9
				c8.3-8.3,17.5-15.3,27-22.1c3.5-2.5,7-4.8,10.3-7.4c4.6-3.6,9.7-6.8,14.4-10.3c4.9-3.6,9.7-7.2,14.4-11c3.5-2.8,7-5.6,10.4-8.5
				c1.7-1.5,3.4-3,5-4.6c0.8-0.8,1.6-1.6,2.5-2.4c0.8-0.8,1.6-1.5,2.3-2.3c0.2-0.3,0.4-0.7,0.4-1.1c0,0-2,0.4-2.2,0.4
				c-0.8,0.2-1.6,0.4-2.4,0.6c-1.6,0.4-3.1,0.9-4.7,1.3c-3.2,0.8-6.4,1.4-9.6,2c-1.5,0.2-3,0.4-4.6,0.6c-0.8,0.1-1.5,0.1-2.3,0.2
				c-0.5,0-2.1-0.2-2.4,0.1c9.3-7.4,17.7-15.7,25.7-24.5c7.7-8.5,15-17.4,21.5-26.7c3.4-4.9,6.7-9.8,9.8-14.9
				c2.4-3.9,4.7-7.9,6.7-12c1.8-3.5,3.3-7.1,3.3-11.1c0-0.1,0-0.1,0-0.2c0,0.1-1.1,0.7-1.2,0.9c-0.4,0.3-0.8,0.6-1.3,1
				c-0.8,0.7-1.5,1.4-2.3,2.1c-1.5,1.4-3.2,2.7-4.9,3.9c-1.9,1.3-4,2.4-6.1,3.4c-1.4,0.6-2.8,1.2-4.3,1.6c-0.7,0.2-1.5,0.4-2.2,0.6
				c-0.7,0.2-1.5,0.5-2.2,0.5c0.1-0.6,0.6-1.3,0.9-1.9c0.3-0.6,0.6-1.3,1-1.9c5.4-10.7,10.3-21.7,14.2-33.1c3.1-9,5.5-18.3,7.4-27.6
				c0.9-4.6,1.9-9.3,2.4-14c0.6-6.3,0.9-12.6,1-18.9c0-4.2-0.1-8.4-0.2-12.5c-0.1-1.6-0.2-3.2-0.4-4.8c-0.2-1.6-0.6-3.2-1-4.8
				c0,0-0.3,0.3-0.3,0.3c-0.3,0.3-0.6,0.7-0.9,1.1c-1.1,1.6-1.9,3.5-2.9,5.3c-0.9,1.5-1.8,3.1-2.7,4.6c-1.7,2.9-3.6,5.8-5.4,8.6
				c-1,1.5-2,3.1-3,4.6c0,0,0,0.1-0.1,0.1c0.5-0.8,0.3-2.8,0.3-3.7c0.1-2.5,0.2-5,0.3-7.5c0.3-12.3-0.9-24.6-3.6-36.5
				c-1.3-5.8-2.8-11.5-4.6-17.1c-0.6-1.8-1.1-3.5-1.7-5.3c-1.3-3.9-2.7-7.9-4.2-11.7c-0.7-1.7-1.6-3.4-2.5-5.1
				c-1.4-2.6-2.7-5.2-4.2-7.7c-1.5-2.6-3.2-5.1-4.9-7.6c-1-1.5-2.2-2.9-3.3-4.3c-1.3-1.6-2.5-3.2-3.8-4.8c-1.2-1.5-2.3-3-3.9-4
				c0.1,0-0.1,1.9-0.1,2.4c0,3.8,0.4,7.5,0.4,11.3c0,1.3,0,2.7,0.1,4c0,1.3,0.1,4,0.1,4s-8.8-11.2-13.3-16.3
				c-8.4-9.6-17.2-18.9-27.1-26.9c-11.7-9.4-24.7-17.1-38.4-23.1c-11.2-4.8-22.9-8.6-34.9-10.9c-8.5-1.6-17.4-2.9-26-2
				c-1.7,0.2-3.5,0.4-5.2,0.7c-7.1,1.3-8.9,9.3-4.2,14.7c1.1,1.3,2.8,3.1,3.9,4.3c15.3,16.7,25.8,37.8,26.7,60.8
				c0.6,16.4-3,32.7-7.7,48.3c-0.2,0.7-0.4,2.2-1,2.7c-0.7,0.6-1-1.5-1.1-2.1c-0.8-3.1-1.5-6.3-2.5-9.4c-1-3.2-2.6-6.2-4-9.2
				c-0.2-0.4-0.5-1-0.9-0.4c-0.4,0.5-0.2,1.2-0.2,1.8c0.1,3.6-0.5,7.1-1.2,10.6c-1.2,6.1-3.2,12.2-5.4,18
				c-2.9,7.6-6.5,14.8-10.6,21.8c-4.6,7.8-10.4,14.7-16.1,21.7c-2.4,2.9-4.8,5.9-7.2,8.8c-1.1,1.4-2.3,2.8-3.4,4.1
				c-0.6,0.7-1.2,1.4-1.8,2.2c-0.3,0.3-1.4,2-1.7,2c-4.6,5.3-9.2,10.6-13.9,15.8c-4,4.5-8.1,9-12.1,13.4c-2.3,2.5-4.6,5-6.9,7.5
				c-0.2,0.2-0.3,0.4-0.5,0.6c0,0,1.9-11.1,2.4-15.4c0.3-2.1,0.4-4.2,0.4-6.3c0-3.1-1.1-6.7-1.3-6.8c-0.3-0.1-2.8,4.1-3.7,5.7
				c-11,19.9-24,40.6-36.8,58.8c-13.9,19.6-28.6,38-38.8,61.1c0.3-0.6-0.2-9.3-0.4-11.3c-0.3-2.5-0.6-5-1.3-7.5
				c-0.3-1.3-0.7-2.6-1.2-3.8c-0.5-1.2-1.1-2.4-1.9-3.3c0,0-0.1-0.1-0.2-0.1c0,0-0.1,0.1-0.1,0.1c-0.4,0.6-0.7,1.2-1.1,1.8
				c-0.4,0.7-0.8,1.4-1.1,2.1c-0.7,1.4-1.3,2.9-1.9,4.3c-1,2.7-2,5.4-2.9,8.2c-1.8,5.4-3.3,10.9-4.8,16.4c-1.3,5-2.6,9.9-3.8,14.9
				c-2,7.9-3.9,15.9-5.6,23.9c-2.7,12.1-4.8,24.4-5.7,36.7c-0.6,9-0.3,17.9-0.3,26.9c0,0.1,0,0.2,0,0.2c0,0-2.8-2.1-4.1-3.1
				c-1.7-1.4-3.3-2.8-4.8-4.3c-3.1-3-5.9-6.2-8.3-9.7c-0.5-0.8-3.1-4.6-3.1-4.6s-0.6,1.3-0.2,6c0.1,1.7,0.3,3.4,0.4,5.2
				c1,14.6,4.1,29,7.8,43.2c5.8,22.5,14.2,44.9,26.8,64.4c0.8,1.2,1.3,2.5,1.9,3.8c0.1,0.2,0.3,0.5,0.1,0.5c-0.2,0-0.6-0.2-0.7-0.3
				c-0.3-0.1-0.5-0.2-0.8-0.3c-1-0.4-2.1-0.9-3.1-1.3c-4.1-1.7-8.4-3.1-12.8-4c-1.3-0.2-2.6-0.4-3.9-0.6c-1.4-0.2-2.8-0.4-4.2-0.6
				c-0.5,0-1-0.1-1.5,0c-0.1,0,0.3,1.5,0.3,1.6c0.8,2.9,2.4,5.7,3.9,8.4c5.6,10.3,12.4,19.3,19.4,28.7c3.7,5,7.4,9.9,11.2,14.8
				c7.5,9.7,15.3,19.3,23.3,28.6c3.7,4.4,8.2,8.3,12.4,12.2c-1.2,0-2.5-0.4-3.7-0.5c-1.2-0.2-2.4-0.4-3.6-0.6
				c-2.3-0.4-4.5-1-6.8-1.3c-2.3-0.3-4.5-0.7-6.7-1.4c-0.8-0.2-1.6-0.5-2.4-0.7c0,0,0,0.8,0.4,1.6c0.6,1.3,1.5,2.2,2.4,3.3
				c6.1,6.7,12.7,12.9,19.8,18.5c5,4,10.4,7.5,15.7,11.2c7,4.8,14,9.4,21.3,13.8c3.8,2.3,7.7,4.5,11.6,6.5c2,1,11.5,5.2,11.5,5.2
				s-3.6,0.7-5.4,0.8c-2.3,0.2-4.7,0.2-7.1,0.2c-2.4,0-4.7-0.2-7.1-0.2c-2.3-0.1-4.6-0.1-7,0c-0.6,0-1.1,0-1.7,0
				c0,0,0.2,0.3,0.2,0.3c0.2,0.3,0.4,0.6,0.7,0.9c0.7,0.8,1.7,1.4,2.6,2c0.5,0.3,1,0.6,1.6,1c0.3,0.2,0.5,0.3,0.8,0.5
				c0.3,0.2,0.6,0.3,0.8,0.5c10.3,5.6,20.5,11.3,31.5,15.5c1.6,0.6,5.1,2.4,5.1,2.4s-4.1,0.7-5.4,0.8c-6.5,0.8-13,1.7-19.5,2.6
				c-4.8,0.6-9.6,1.2-14.4,1.9c-9,1.4-18,2.9-26.9,4.6c0.6-0.1,2.9,1.6,3.5,1.9c1.4,0.8,2.8,1.5,4.2,2.2c2.7,1.4,5.4,2.8,8.1,4.1
				c5.4,2.7,11,5.3,16.5,7.7c22.1,9.6,45.3,16.8,68.9,21.6c11.7,2.4,23.6,4.1,35.4,5.3c11.2,1.1,22.4,1.6,33.6,1.6
				c24.3,0,48.7-2.5,72.5-7.6c23.2-4.9,45.8-12.2,67.5-21.7C661.8,846.1,671.3,841.4,680.6,836.3z M560.5,752.7
				c12.5,14.7,23.9,32,27.3,51.5c0.6,3.7,2.6,13.2-0.7,16.3c-1.3,1.2-6.6-0.6-8.2-0.8c-31.6-5-63.6-7.6-94.9-13.9
				c-17.3-3.5-34.6-8.2-50.8-15.4c-15.6-6.9-30.1-16.1-43.9-26c-6.3-4.5-12.1-9.2-17.9-14.3c-17.3-15-33.4-31.9-44.7-52
				c-0.5-0.9-1-1.9-1.5-2.8c-8.4-15.8-15.6-32.6-21.2-49.6c-5.9-18-9.6-36.5-11.5-55.3c-2.4-24-0.1-48.5,6.8-71.6
				c1.2-3.8,2.4-7.6,3.9-11.4c6.2-16.3,12.4-31.8,21.2-46.9c8.6-14.9,18.4-29.2,29-42.7c22.5-28.4,48.7-53.7,74.2-79.4
				c22-22,34.6-34.2,59.2-75.5c13.5-25.9,21-55.4,17.3-84.7c-1.4-11.4-4.3-22.7-9.2-33.2c-0.9-1.9-1.9-3.7-2.9-5.6
				c-0.5-0.9-1.1-1.9-1.7-2.7c-0.3-0.5-1-1.1,0-1.3c0.7-0.2,1.7,0.1,2.4,0.2c11.2,2.5,21.7,7.4,31.4,13.4c9.9,6.1,19.4,13,28.2,20.6
				c7.3,6.4,14.2,13.3,20.5,20.6c4.2,4.8,8.1,9.8,11.8,15c7.3,10.4,13.6,21.5,18.5,33.3c17.7,42.4,17.4,90.9-0.9,133.1
				c-10.3,23.7-23.1,44.1-39.8,63.7c-19.8,23.4-42,44.9-60,69.7c-19.6,27.1-30.7,56.2-32.6,89.7c-0.1,1.4-0.1,2.9-0.2,4.3
				c-0.7,16.5-1,33.4,3.8,49.2c4.5,14.6,13.8,27.2,23.8,38.6c11.9,13.4,25,25.7,37.5,38.6C543.2,734,552.3,743,560.5,752.7z"/>
			<polygon class="st4" points="312.7,484.5 312.7,484.5 312.7,484.5 			"/>
			<path class="st4" d="M318.7,472.5C318.7,472.5,318.7,472.5,318.7,472.5C318.7,472.5,318.7,472.5,318.7,472.5L318.7,472.5z"/>
			<path class="st4" d="M314.7,480.5C314.7,480.5,314.7,480.5,314.7,480.5C314.7,480.5,314.7,480.5,314.7,480.5L314.7,480.5z"/>
			<path class="st4" d="M342.5,432.3c0,0-0.1,0.1-0.1,0.1c0,0,0,0,0,0L342.5,432.3z"/>
			<path class="st4" d="M330.6,451.4C330.6,451.4,330.6,451.4,330.6,451.4C330.5,451.5,330.5,451.5,330.6,451.4L330.6,451.4z"/>
		</g>
	</g>
</g>
</svg>
